<svg width="761" height="538" xmlns="http://www.w3.org/2000/svg" xmlns:xlink="http://www.w3.org/1999/xlink" overflow="hidden"><defs><clipPath id="clip0"><rect x="135" y="144" width="761" height="538"/></clipPath></defs><g clip-path="url(#clip0)" transform="translate(-135 -144)"><path d="M534.34 185.401 695.255 185.401 695.255 249.242 534.34 249.242Z" stroke="#000000" stroke-width="0.874534" fill="#C8F08C" transform="matrix(1 0 0 1.00096 -27.7403 106.082)"/><path d="M534.34 200.268 695.255 200.268" stroke="#000000" stroke-width="0.874534" stroke-miterlimit="10" fill="none" transform="matrix(1 0 0 1.00096 -27.7403 106.082)"/><path d="M534.34 218.634 695.255 218.634" stroke="#000000" stroke-width="0.874534" stroke-miterlimit="10" fill="none" transform="matrix(1 0 0 1.00096 -27.7403 106.082)"/><text font-family="Arial,Arial_MSFontService,sans-serif" font-weight="700" font-size="12" transform="matrix(0.874534 0 0 0.875378 561.696 302)">Prosumer<tspan font-weight="400" font-size="12" x="-56.5" y="20.5625">- </tspan><tspan font-weight="400" font-size="12" x="-49.5" y="20.5625">windTurbine </tspan><tspan font-weight="400" font-size="12" x="21.5" y="20.5625">: </tspan><tspan font-weight="400" font-size="12" x="27.5" y="20.5625">WindTurbine</tspan><tspan font-weight="400" font-size="12" x="-56.5" y="38.8404">+ </tspan><tspan font-weight="400" font-size="12" x="-46.5001" y="38.8404">production</tspan><tspan font-weight="400" font-size="12" x="11.5" y="38.8404">(</tspan><tspan font-weight="400" font-size="12" x="15.4999" y="38.8404">speed </tspan><tspan font-weight="400" font-size="12" x="53.4999" y="38.8404">: </tspan><tspan font-weight="400" font-size="12" x="59.5" y="38.8404">float</tspan><tspan font-weight="400" font-size="12" x="82.5" y="38.8404">) : </tspan><tspan font-weight="400" font-size="12" x="95.5" y="38.8404">float</tspan><tspan font-weight="400" font-size="12" x="-56.5" y="54.8335">+ </tspan><tspan font-weight="400" font-size="12" x="-46.5001" y="54.8335">bufferSize</tspan><tspan font-weight="400" font-size="12" x="7.49995" y="54.8335">() : </tspan><tspan font-weight="400" font-size="12" x="24.5" y="54.8335">int</tspan><tspan font-weight="400" font-size="12" x="37.5" y="54.8335">32</tspan></text><path d="M534.34 58.5938 697.004 58.5938 697.004 150.42 534.34 150.42Z" stroke="#000000" stroke-width="0.874534" fill="#C8F08C" transform="matrix(1 0 0 1.00096 -27.7403 106.082)"/><path d="M534.34 73.4609 697.004 73.4609" stroke="#000000" stroke-width="0.874534" stroke-miterlimit="10" fill="none" transform="matrix(1 0 0 1.00096 -27.7403 106.082)"/><path d="M534.34 119.811 697.004 119.811" stroke="#000000" stroke-width="0.874534" stroke-miterlimit="10" fill="none" transform="matrix(1 0 0 1.00096 -27.7403 106.082)"/><text font-family="Arial,Arial_MSFontService,sans-serif" font-weight="700" font-size="12" transform="matrix(0.874534 0 0 0.875378 561.696 175)">Consumer<tspan font-weight="400" font-size="12" x="-56.5" y="20.5625">- </tspan><tspan font-weight="400" font-size="12" x="-49.5" y="20.5625">baseConsumption </tspan><tspan font-weight="400" font-size="12" x="56.5" y="20.5625">: </tspan><tspan font-weight="400" font-size="12" x="62.5" y="20.5625">float</tspan><tspan font-weight="400" font-size="12" x="-56.5" y="36.5556">- </tspan><tspan font-weight="400" font-size="12" x="-49.5" y="36.5556">identity </tspan><tspan font-weight="400" font-size="12" x="-8.50006" y="36.5556">: </tspan><tspan font-weight="400" font-size="12" x="-2.50001" y="36.5556">Identity</tspan><tspan font-weight="400" font-size="12" x="-56.5" y="70.8266">+ </tspan><tspan font-weight="400" font-size="12" x="-46.5001" y="70.8266">consumption</tspan><tspan font-weight="400" font-size="12" x="25.5" y="70.8266">(</tspan><tspan font-weight="400" font-size="12" x="29.5" y="70.8266">day </tspan><tspan font-weight="400" font-size="12" x="51.5" y="70.8266">: </tspan><tspan font-weight="400" font-size="12" x="57.5" y="70.8266">int</tspan><tspan font-weight="400" font-size="12" x="70.5" y="70.8266">32</tspan><tspan font-weight="400" font-size="12" x="84.5" y="70.8266">) : </tspan><tspan font-weight="400" font-size="12" x="97.5" y="70.8266">float</tspan><tspan font-weight="400" font-size="12" x="-56.5" y="52.5487">- </tspan><tspan font-weight="400" font-size="12" x="-49.5" y="52.5487">gaussian</tspan><tspan font-weight="400" font-size="12" x="2.50001" y="52.5487">: </tspan><tspan font-weight="400" font-size="12" x="8.49999" y="52.5487">NormalDistribution</tspan><tspan font-weight="400" font-size="12" x="-56.5" y="86.8196">+ </tspan><tspan font-weight="400" font-size="12" x="-46.5001" y="86.8196">getIdentity</tspan><tspan font-weight="400" font-size="12" x="8.49999" y="86.8196">() : </tspan><tspan font-weight="400" font-size="12" x="25.5" y="86.8196">Identity</tspan></text><path d="M620.919 439.891 733.734 439.891 733.734 545.709 620.919 545.709Z" stroke="#000000" stroke-width="0.874534" fill="#FFF1AA" transform="matrix(1 0 0 1.00096 -27.7403 106.082)"/><path d="M620.919 454.758 733.734 454.758" stroke="#000000" stroke-width="0.874534" stroke-miterlimit="10" fill="none" transform="matrix(1 0 0 1.00096 -27.7403 106.082)"/><path d="M620.919 487.116 733.734 487.116" stroke="#000000" stroke-width="0.874534" stroke-miterlimit="10" fill="none" transform="matrix(1 0 0 1.00096 -27.7403 106.082)"/><text font-family="Arial,Arial_MSFontService,sans-serif" font-weight="700" font-size="12" transform="matrix(0.874534 0 0 0.875378 631.659 556)">Market<tspan font-weight="400" font-size="12" x="-37.5" y="21.7049">- </tspan><tspan font-weight="400" font-size="12" x="-30.5" y="21.7049">demand </tspan><tspan font-weight="400" font-size="12" x="18.5" y="21.7049">: </tspan><tspan font-weight="400" font-size="12" x="24.5" y="21.7049">float</tspan><tspan font-weight="400" font-size="12" x="-37.5" y="37.698">- </tspan><tspan font-weight="400" font-size="12" x="-30.5" y="37.698">cep </tspan><tspan font-weight="400" font-size="12" x="-7.50002" y="37.698">: </tspan><tspan font-weight="400" font-size="12" x="-1.49996" y="37.698">float</tspan><tspan font-weight="400" font-size="12" x="-37.5" y="55.9758">+ </tspan><tspan font-weight="400" font-size="12" x="-27.5" y="55.9758">getDemand</tspan><tspan font-weight="400" font-size="12" x="37.5" y="55.9758">() : </tspan><tspan font-weight="400" font-size="12" x="54.5" y="55.9758">float</tspan><tspan font-weight="400" font-size="12" x="-37.5" y="71.9689">+ </tspan><tspan font-weight="400" font-size="12" x="-27.5" y="71.9689">getCEP</tspan><tspan font-weight="400" font-size="12" x="14.5" y="71.9689">() : </tspan><tspan font-weight="400" font-size="12" x="31.5" y="71.9689">float</tspan><tspan font-weight="400" font-size="12" x="-37.5" y="87.962">+ </tspan><tspan font-weight="400" font-size="12" x="-27.5" y="87.962">fillDemand</tspan><tspan font-weight="400" font-size="12" x="32.5" y="87.962">() : </tspan><tspan font-weight="400" font-size="12" x="49.5" y="87.962">void</tspan><tspan font-weight="400" font-size="12" x="-37.5" y="103.955">+ </tspan><tspan font-weight="400" font-size="12" x="-27.5" y="103.955">calculateCEP</tspan><tspan font-weight="400" font-size="12" x="46.5" y="103.955">() : </tspan><tspan font-weight="400" font-size="12" x="63.5" y="103.955">void</tspan></text><path d="M761.719 355.935 893.774 355.935 893.774 545.709 761.719 545.709Z" stroke="#000000" stroke-width="0.874534" fill="#FFF1AA" transform="matrix(1 0 0 1.00096 -27.7403 106.082)"/><path d="M761.719 370.803 893.774 370.803" stroke="#000000" stroke-width="0.874534" stroke-miterlimit="10" fill="none" transform="matrix(1 0 0 1.00096 -27.7403 106.082)"/><path d="M761.719 445.138 893.774 445.138" stroke="#000000" stroke-width="0.874534" stroke-miterlimit="10" fill="none" transform="matrix(1 0 0 1.00096 -27.7403 106.082)"/><text font-family="Arial,Arial_MSFontService,sans-serif" font-weight="700" font-size="12" transform="matrix(0.874534 0 0 0.875378 769.398 472)">Power Plant<tspan font-weight="400" font-size="12" x="-34" y="21.7049">- </tspan><tspan font-weight="400" font-size="12" x="-27" y="21.7049">production </tspan><tspan font-weight="400" font-size="12" x="34" y="21.7049">: </tspan><tspan font-weight="400" font-size="12" x="39.9999" y="21.7049">float</tspan><tspan font-weight="400" font-size="12" x="-34" y="37.698">- </tspan><tspan font-weight="400" font-size="12" x="-27" y="37.698">consumption </tspan><tspan font-weight="400" font-size="12" x="47.9999" y="37.698">: </tspan><tspan font-weight="400" font-size="12" x="53.9999" y="37.698">float</tspan><tspan font-weight="400" font-size="12" x="-34" y="53.6911">- </tspan><tspan font-weight="400" font-size="12" x="-27" y="53.6911">status </tspan><tspan font-weight="400" font-size="12" x="9.99995" y="53.6911">: </tspan><tspan font-weight="400" font-size="12" x="15.9999" y="53.6911">int</tspan><tspan font-weight="400" font-size="12" x="29" y="53.6911">32</tspan><tspan font-weight="400" font-size="12" x="-34" y="69.6842">- </tspan><tspan font-weight="400" font-size="12" x="-27" y="69.6842">mep</tspan><tspan font-weight="400" font-size="12" x="-2.00002" y="69.6842">_</tspan><tspan font-weight="400" font-size="12" x="4.99994" y="69.6842">pp </tspan><tspan font-weight="400" font-size="12" x="22" y="69.6842">: </tspan><tspan font-weight="400" font-size="12" x="28" y="69.6842">float</tspan><tspan font-weight="400" font-size="12" x="-34" y="85.6773">- </tspan><tspan font-weight="400" font-size="12" x="-27" y="85.6773">cep</tspan><tspan font-weight="400" font-size="12" x="-7.00003" y="85.6773">_</tspan><tspan font-weight="400" font-size="12" x="0" y="85.6773">pp </tspan><tspan font-weight="400" font-size="12" x="17" y="85.6773">: </tspan><tspan font-weight="400" font-size="12" x="23" y="85.6773">float</tspan><tspan font-weight="400" font-size="12" x="-34" y="103.955">+ </tspan><tspan font-weight="400" font-size="12" x="-24" y="103.955">getProduction</tspan><tspan font-weight="400" font-size="12" x="52" y="103.955">() : </tspan><tspan font-weight="400" font-size="12" x="69" y="103.955">float</tspan><tspan font-weight="400" font-size="12" x="-34" y="119.948">+ </tspan><tspan font-weight="400" font-size="12" x="-24" y="119.948">getConsumption</tspan><tspan font-weight="400" font-size="12" x="68" y="119.948">() : </tspan><tspan font-weight="400" font-size="12" x="85" y="119.948">float</tspan><tspan font-weight="400" font-size="12" x="-34" y="135.941">+ </tspan><tspan font-weight="400" font-size="12" x="-24" y="135.941">getStatus</tspan><tspan font-weight="400" font-size="12" x="28" y="135.941">() : </tspan><tspan font-weight="400" font-size="12" x="45" y="135.941">int</tspan><tspan font-weight="400" font-size="12" x="58" y="135.941">32</tspan><tspan font-weight="400" font-size="12" x="-34" y="151.934">+ </tspan><tspan font-weight="400" font-size="12" x="-24" y="151.934">getMep</tspan><tspan font-weight="400" font-size="12" x="15.9999" y="151.934">() : </tspan><tspan font-weight="400" font-size="12" x="33" y="151.934">float</tspan><tspan font-weight="400" font-size="12" x="-34" y="167.927">+ </tspan><tspan font-weight="400" font-size="12" x="-24" y="167.927">getCep</tspan><tspan font-weight="400" font-size="12" x="15.9999" y="167.927">() : </tspan><tspan font-weight="400" font-size="12" x="33" y="167.927">float</tspan><tspan font-weight="400" font-size="12" x="-34" y="183.921">+ </tspan><tspan font-weight="400" font-size="12" x="-24" y="183.921">changeStatus</tspan><tspan font-weight="400" font-size="12" x="52" y="183.921">() : </tspan><tspan font-weight="400" font-size="12" x="69" y="183.921">void</tspan><tspan font-weight="400" font-size="12" x="-34" y="199.914">+ </tspan><tspan font-weight="400" font-size="12" x="-24" y="199.914">setCep</tspan><tspan font-weight="400" font-size="12" x="15.9999" y="199.914">(</tspan><tspan font-weight="400" font-size="12" x="20" y="199.914">cep </tspan><tspan font-weight="400" font-size="12" x="42.9999" y="199.914">: </tspan><tspan font-weight="400" font-size="12" x="49" y="199.914">float</tspan><tspan font-weight="400" font-size="12" x="72" y="199.914">) : </tspan><tspan font-weight="400" font-size="12" x="85" y="199.914">void</tspan></text><path d="M275.041 438.142 593.372 438.142 593.372 545.709 275.041 545.709Z" stroke="#000000" stroke-width="0.874534" fill="#FFF1AA" transform="matrix(1 0 0 1.00096 -27.7403 106.082)"/><path d="M275.041 453.009 593.372 453.009" stroke="#000000" stroke-width="0.874534" stroke-miterlimit="10" fill="none" transform="matrix(1 0 0 1.00096 -27.7403 106.082)"/><path d="M275.041 499.359 593.372 499.359" stroke="#000000" stroke-width="0.874534" stroke-miterlimit="10" fill="none" transform="matrix(1 0 0 1.00096 -27.7403 106.082)"/><text font-family="Arial,Arial_MSFontService,sans-serif" font-weight="700" font-size="12" transform="matrix(0.874534 0 0 0.875378 393.348 555)">Wind<tspan font-weight="400" font-size="12" x="-160.5" y="20.5625">- </tspan><tspan font-weight="400" font-size="12" x="-153.5" y="20.5625">speedBase </tspan><tspan font-weight="400" font-size="12" x="-86.5" y="20.5625">: </tspan><tspan font-weight="400" font-size="12" x="-80.5" y="20.5625">float</tspan><tspan font-weight="400" font-size="12" x="-160.5" y="70.8266">+ </tspan><tspan font-weight="400" font-size="12" x="-150.5" y="70.8266">getMean</tspan><tspan font-weight="400" font-size="12" x="-103.5" y="70.8266">() : </tspan><tspan font-weight="400" font-size="12" x="-86.5" y="70.8266">float</tspan><tspan font-weight="400" font-size="12" x="-160.5" y="36.5556">- </tspan><tspan font-weight="400" font-size="12" x="-153.5" y="36.5556">gaussianMean </tspan><tspan font-weight="400" font-size="12" x="-68.5" y="36.5556">: </tspan><tspan font-weight="400" font-size="12" x="-62.5" y="36.5556">float</tspan><tspan font-weight="400" font-size="12" x="-160.5" y="52.5487">- </tspan><tspan font-weight="400" font-size="12" x="-153.5" y="52.5487">gaussianDev </tspan><tspan font-weight="400" font-size="12" x="-77.5" y="52.5487">: </tspan><tspan font-weight="400" font-size="12" x="-71.5" y="52.5487">float</tspan><tspan font-weight="400" font-size="12" x="-160.5" y="86.8196">+ </tspan><tspan font-weight="400" font-size="12" x="-150.5" y="86.8196">getDev</tspan><tspan font-weight="400" font-size="12" x="-112.5" y="86.8196">() : </tspan><tspan font-weight="400" font-size="12" x="-95.5" y="86.8196">float</tspan><tspan font-weight="400" font-size="12" x="-160.5" y="102.813">+ </tspan><tspan font-weight="400" font-size="12" x="-150.5" y="102.813">speed</tspan><tspan font-weight="400" font-size="12" x="-115.5" y="102.813">(</tspan><tspan font-weight="400" font-size="12" x="-111.5" y="102.813">hour </tspan><tspan font-weight="400" font-size="12" x="-83.5" y="102.813">: </tspan><tspan font-weight="400" font-size="12" x="-77.5" y="102.813">int</tspan><tspan font-weight="400" font-size="12" x="-64.5" y="102.813">32</tspan><tspan font-weight="400" font-size="12" x="-50.5" y="102.813">, </tspan><tspan font-weight="400" font-size="12" x="-44.5" y="102.813">day </tspan><tspan font-weight="400" font-size="12" x="-22.5" y="102.813">: </tspan><tspan font-weight="400" font-size="12" x="-16.5" y="102.813">int</tspan><tspan font-weight="400" font-size="12" x="-3.50001" y="102.813">32</tspan><tspan font-weight="400" font-size="12" x="10.5" y="102.813">, </tspan><tspan font-weight="400" font-size="12" x="16.5" y="102.813">month </tspan><tspan font-weight="400" font-size="12" x="54.5" y="102.813">: </tspan><tspan font-weight="400" font-size="12" x="60.5" y="102.813">int</tspan><tspan font-weight="400" font-size="12" x="73.5" y="102.813">32</tspan><tspan font-weight="400" font-size="12" x="87.5" y="102.813">, </tspan><tspan font-weight="400" font-size="12" x="93.5" y="102.813">year </tspan><tspan font-weight="400" font-size="12" x="119.5" y="102.813">: </tspan><tspan font-weight="400" font-size="12" x="125.5" y="102.813">int</tspan><tspan font-weight="400" font-size="12" x="138.5" y="102.813">32</tspan><tspan font-weight="400" font-size="12" x="152.5" y="102.813">) : </tspan><tspan font-weight="400" font-size="12" x="165.5" y="102.813">int</tspan><tspan font-weight="400" font-size="12" x="178.5" y="102.813">32</tspan></text><path d="M254.489 58.5938 386.544 58.5938 386.544 138.176 254.489 138.176Z" stroke="#000000" stroke-width="0.874534" fill="#A0C8F0" transform="matrix(1 0 0 1.00096 -27.7403 106.082)"/><path d="M254.489 73.4609 386.544 73.4609" stroke="#000000" stroke-width="0.874534" stroke-miterlimit="10" fill="none" transform="matrix(1 0 0 1.00096 -27.7403 106.082)"/><path d="M254.489 105.819 386.544 105.819" stroke="#000000" stroke-width="0.874534" stroke-miterlimit="10" fill="none" transform="matrix(1 0 0 1.00096 -27.7403 106.082)"/><text font-family="Arial,Arial_MSFontService,sans-serif" font-weight="700" font-size="12" transform="matrix(0.874534 0 0 0.875378 280.533 175)">User<tspan font-weight="400" font-size="12" x="-55" y="20.5625">- </tspan><tspan font-weight="400" font-size="12" x="-48" y="20.5625">identity </tspan><tspan font-weight="400" font-size="12" x="-6.99999" y="20.5625">: </tspan><tspan font-weight="400" font-size="12" x="-0.999974" y="20.5625">Identity</tspan><tspan font-weight="400" font-size="12" x="-55" y="36.5556">- </tspan><tspan font-weight="400" font-size="12" x="-48" y="36.5556">account </tspan><tspan font-weight="400" font-size="12" x="-1.99998" y="36.5556">: </tspan><tspan font-weight="400" font-size="12" x="4" y="36.5556">Account</tspan><tspan font-weight="400" font-size="12" x="-55" y="54.8335">+ </tspan><tspan font-weight="400" font-size="12" x="-45" y="54.8335">getIdentity</tspan><tspan font-weight="400" font-size="12" x="10" y="54.8335">() : </tspan><tspan font-weight="400" font-size="12" x="27" y="54.8335">Identity</tspan><tspan font-weight="400" font-size="12" x="-55" y="70.8266">+ </tspan><tspan font-weight="400" font-size="12" x="-45" y="70.8266">getAccount</tspan><tspan font-weight="400" font-size="12" x="15" y="70.8266">() : </tspan><tspan font-weight="400" font-size="12" x="32" y="70.8266">Account</tspan></text><path d="M181.903 175.344 295.593 175.344 295.593 281.163 181.903 281.163Z" stroke="#000000" stroke-width="0.874534" fill="#A0C8F0" transform="matrix(1 0 0 1.00096 -27.7403 106.082)"/><path d="M181.903 190.211 295.593 190.211" stroke="#000000" stroke-width="0.874534" stroke-miterlimit="10" fill="none" transform="matrix(1 0 0 1.00096 -27.7403 106.082)"/><path d="M181.903 236.562 295.593 236.562" stroke="#000000" stroke-width="0.874534" stroke-miterlimit="10" fill="none" transform="matrix(1 0 0 1.00096 -27.7403 106.082)"/><text font-family="Arial,Arial_MSFontService,sans-serif" font-weight="700" font-size="12" transform="matrix(0.874534 0 0 0.875378 192.642 292)">Identity<tspan font-weight="400" font-size="12" x="-37.5" y="20.5625">- </tspan><tspan font-weight="400" font-size="12" x="-30.5" y="20.5625">id </tspan><tspan font-weight="400" font-size="12" x="-17.5" y="20.5625">: </tspan><tspan font-weight="400" font-size="12" x="-11.5" y="20.5625">string</tspan><tspan font-weight="400" font-size="12" x="-37.5" y="36.5556">- </tspan><tspan font-weight="400" font-size="12" x="-30.5" y="36.5556">address </tspan><tspan font-weight="400" font-size="12" x="18.5" y="36.5556">: </tspan><tspan font-weight="400" font-size="12" x="24.5" y="36.5556">string</tspan><tspan font-weight="400" font-size="12" x="-37.5" y="52.5487">- </tspan><tspan font-weight="400" font-size="12" x="-30.5" y="52.5487">port </tspan><tspan font-weight="400" font-size="12" x="-6.50001" y="52.5487">: </tspan><tspan font-weight="400" font-size="12" x="-0.500005" y="52.5487">int</tspan><tspan font-weight="400" font-size="12" x="12.5" y="52.5487">32</tspan><tspan font-weight="400" font-size="12" x="-37.5" y="70.8266">+ </tspan><tspan font-weight="400" font-size="12" x="-27.5" y="70.8266">getId</tspan><tspan font-weight="400" font-size="12" x="-0.500005" y="70.8266">() : </tspan><tspan font-weight="400" font-size="12" x="16.5" y="70.8266">string</tspan><tspan font-weight="400" font-size="12" x="-37.5" y="86.8196">+ </tspan><tspan font-weight="400" font-size="12" x="-27.5" y="86.8196">getAddress</tspan><tspan font-weight="400" font-size="12" x="35.5" y="86.8196">() : </tspan><tspan font-weight="400" font-size="12" x="52.5" y="86.8196">string</tspan><tspan font-weight="400" font-size="12" x="-37.5" y="102.813">+ </tspan><tspan font-weight="400" font-size="12" x="-27.5" y="102.813">getPort</tspan><tspan font-weight="400" font-size="12" x="11.5" y="102.813">() : </tspan><tspan font-weight="400" font-size="12" x="28.5" y="102.813">int</tspan><tspan font-weight="400" font-size="12" x="41.5" y="102.813">32</tspan></text><path d="M334.947 175.781 460.005 175.781 460.005 421.526 334.947 421.526Z" stroke="#000000" stroke-width="0.874534" fill="#A0C8F0" transform="matrix(1 0 0 1.00096 -27.7403 106.082)"/><path d="M334.947 190.648 460.005 190.648" stroke="#000000" stroke-width="0.874534" stroke-miterlimit="10" fill="none" transform="matrix(1 0 0 1.00096 -27.7403 106.082)"/><path d="M334.947 278.976 460.005 278.976" stroke="#000000" stroke-width="0.874534" stroke-miterlimit="10" fill="none" transform="matrix(1 0 0 1.00096 -27.7403 106.082)"/><text font-family="Arial,Arial_MSFontService,sans-serif" font-weight="700" font-size="12" transform="matrix(0.874534 0 0 0.875378 348.747 292)">Account<tspan font-weight="400" font-size="12" x="-41" y="20.5625">- </tspan><tspan font-weight="400" font-size="12" x="-34" y="20.5625">first</tspan><tspan font-weight="400" font-size="12" x="-14" y="20.5625">_</tspan><tspan font-weight="400" font-size="12" x="-6.99999" y="20.5625">name </tspan><tspan font-weight="400" font-size="12" x="28" y="20.5625">: </tspan><tspan font-weight="400" font-size="12" x="34" y="20.5625">string</tspan><tspan font-weight="400" font-size="12" x="-41" y="36.5556">- </tspan><tspan font-weight="400" font-size="12" x="-34" y="36.5556">last</tspan><tspan font-weight="400" font-size="12" x="-14" y="36.5556">_</tspan><tspan font-weight="400" font-size="12" x="-6.99999" y="36.5556">name </tspan><tspan font-weight="400" font-size="12" x="28" y="36.5556">: </tspan><tspan font-weight="400" font-size="12" x="34" y="36.5556">string</tspan><tspan font-weight="400" font-size="12" x="-41" y="52.5487">- </tspan><tspan font-weight="400" font-size="12" x="-34" y="52.5487">mail </tspan><tspan font-weight="400" font-size="12" x="-6.99999" y="52.5487">: </tspan><tspan font-weight="400" font-size="12" x="-1.00001" y="52.5487">string</tspan><tspan font-weight="400" font-size="12" x="-41" y="69.6842">- </tspan><tspan font-weight="400" font-size="12" x="-34" y="69.6842">username </tspan><tspan font-weight="400" font-size="12" x="26" y="69.6842">: </tspan><tspan font-weight="400" font-size="12" x="32" y="69.6842">string</tspan><tspan font-weight="400" font-size="12" x="-41" y="85.6773">- </tspan><tspan font-weight="400" font-size="12" x="-34" y="85.6773">hash </tspan><tspan font-weight="400" font-size="12" x="-2.99999" y="85.6773">: </tspan><tspan font-weight="400" font-size="12" x="2.99999" y="85.6773">string</tspan><tspan font-weight="400" font-size="12" x="-41" y="101.67">- </tspan><tspan font-weight="400" font-size="12" x="-34" y="101.67">admin </tspan><tspan font-weight="400" font-size="12" x="4" y="101.67">: </tspan><tspan font-weight="400" font-size="12" x="10" y="101.67">int</tspan><tspan font-weight="400" font-size="12" x="23" y="101.67">32</tspan><tspan font-weight="400" font-size="12" x="-41" y="118.806">+ </tspan><tspan font-weight="400" font-size="12" x="-31" y="118.806">getFirstName</tspan><tspan font-weight="400" font-size="12" x="44" y="118.806">() : </tspan><tspan font-weight="400" font-size="12" x="61" y="118.806">string</tspan><tspan font-weight="400" font-size="12" x="-41" y="134.799">+ </tspan><tspan font-weight="400" font-size="12" x="-31" y="134.799">getLastName</tspan><tspan font-weight="400" font-size="12" x="44" y="134.799">() : </tspan><tspan font-weight="400" font-size="12" x="61" y="134.799">string</tspan><tspan font-weight="400" font-size="12" x="-41" y="150.792">+ </tspan><tspan font-weight="400" font-size="12" x="-31" y="150.792">getMail</tspan><tspan font-weight="400" font-size="12" x="8" y="150.792">() : </tspan><tspan font-weight="400" font-size="12" x="25" y="150.792">string</tspan><tspan font-weight="400" font-size="12" x="-41" y="166.785">+ </tspan><tspan font-weight="400" font-size="12" x="-31" y="166.785">getUsername</tspan><tspan font-weight="400" font-size="12" x="45" y="166.785">() : </tspan><tspan font-weight="400" font-size="12" x="62" y="166.785">string</tspan><tspan font-weight="400" font-size="12" x="-41" y="182.778">+ </tspan><tspan font-weight="400" font-size="12" x="-31" y="182.778">getHash</tspan><tspan font-weight="400" font-size="12" x="16" y="182.778">() : </tspan><tspan font-weight="400" font-size="12" x="33" y="182.778">string</tspan><tspan font-weight="400" font-size="12" x="-41" y="198.771">+ </tspan><tspan font-weight="400" font-size="12" x="-31" y="198.771">getAdmin</tspan><tspan font-weight="400" font-size="12" x="21" y="198.771">() : </tspan><tspan font-weight="400" font-size="12" x="38" y="198.771">int</tspan><tspan font-weight="400" font-size="12" x="51" y="198.771">32</tspan><tspan font-weight="400" font-size="12" x="-41" y="214.764">+ </tspan><tspan font-weight="400" font-size="12" x="-31" y="214.764">setFirstName</tspan><tspan font-weight="400" font-size="12" x="44" y="214.764">() : </tspan><tspan font-weight="400" font-size="12" x="61" y="214.764">void</tspan><tspan font-weight="400" font-size="12" x="-41" y="230.757">+ </tspan><tspan font-weight="400" font-size="12" x="-31" y="230.757">setLastName</tspan><tspan font-weight="400" font-size="12" x="44" y="230.757">() : </tspan><tspan font-weight="400" font-size="12" x="61" y="230.757">void</tspan><tspan font-weight="400" font-size="12" x="-41" y="246.751">+ </tspan><tspan font-weight="400" font-size="12" x="-31" y="246.751">setMail</tspan><tspan font-weight="400" font-size="12" x="8" y="246.751">() : </tspan><tspan font-weight="400" font-size="12" x="25" y="246.751">void</tspan><tspan font-weight="400" font-size="12" x="-41" y="262.744">+ </tspan><tspan font-weight="400" font-size="12" x="-31" y="262.744">setHash</tspan><tspan font-weight="400" font-size="12" x="16" y="262.744">() : </tspan><tspan font-weight="400" font-size="12" x="33" y="262.744">void</tspan></text><path d="M320.517 150.166 320.517 153.481C320.517 155.696 317.602 156.804 311.771 156.804L247.493 156.804C241.663 156.804 238.748 159.719 238.748 165.549L238.748 175.781" stroke="#000000" stroke-width="0.874534" stroke-miterlimit="10" fill="none" transform="matrix(1 0 0 1.00096 -27.7403 106.082)"/><path d="M320.517 138.797 326.201 144.482 320.517 150.166 314.832 144.482Z" stroke="#000000" stroke-width="0.874534" stroke-miterlimit="10" transform="matrix(1 0 0 1.00096 -27.7403 106.082)"/><path d="M320.517 150.166 320.517 153.568C320.517 155.842 323.432 156.979 329.262 156.979L389.168 156.979C394.998 156.979 397.913 159.894 397.913 165.724L397.913 175.781" stroke="#000000" stroke-width="0.874534" stroke-miterlimit="10" fill="none" transform="matrix(1 0 0 1.00096 -27.7403 106.082)"/><path d="M320.517 138.797 326.201 144.482 320.517 150.166 314.832 144.482Z" stroke="#000000" stroke-width="0.874534" stroke-miterlimit="10" transform="matrix(1 0 0 1.00096 -27.7403 106.082)"/><path d="M615.672 161.894 615.672 164.902C615.672 166.908 615.526 167.911 615.235 167.911L615.016 167.911C614.87 167.911 614.798 170.825 614.798 176.656L614.798 185.401" stroke="#000000" stroke-width="0.874534" stroke-miterlimit="10" fill="none" transform="matrix(1 0 0 1.00096 -27.7403 106.082)"/><path d="M615.672 151.399 620.919 161.894 610.425 161.894Z" stroke="#000000" stroke-width="0.874534" stroke-miterlimit="10" fill="none" transform="matrix(1 0 0 1.00096 -27.7403 106.082)"/><path d="M731.111 185.401 893.774 185.401 893.774 277.227 731.111 277.227Z" stroke="#000000" stroke-width="0.874534" fill="#C8F08C" transform="matrix(1 0 0 1.00096 -27.7403 106.082)"/><path d="M731.111 200.268 893.774 200.268" stroke="#000000" stroke-width="0.874534" stroke-miterlimit="10" fill="none" transform="matrix(1 0 0 1.00096 -27.7403 106.082)"/><path d="M731.111 246.619 893.774 246.619" stroke="#000000" stroke-width="0.874534" stroke-miterlimit="10" fill="none" transform="matrix(1 0 0 1.00096 -27.7403 106.082)"/><text font-family="Arial,Arial_MSFontService,sans-serif" font-weight="700" font-size="12" transform="matrix(0.874534 0 0 0.875378 753.219 302)">WindTurbine<tspan font-weight="400" font-size="12" x="-50.5" y="20.5625">- </tspan><tspan font-weight="400" font-size="12" x="-43.5" y="20.5625">bufferSize </tspan><tspan font-weight="400" font-size="12" x="13.5" y="20.5625">: </tspan><tspan font-weight="400" font-size="12" x="19.5" y="20.5625">int</tspan><tspan font-weight="400" font-size="12" x="32.5" y="20.5625">32</tspan><tspan font-weight="400" font-size="12" x="-50.5" y="36.5556">- </tspan><tspan font-weight="400" font-size="12" x="-43.5" y="36.5556">efficiency </tspan><tspan font-weight="400" font-size="12" x="9.49996" y="36.5556">: </tspan><tspan font-weight="400" font-size="12" x="15.4999" y="36.5556">float</tspan><tspan font-weight="400" font-size="12" x="-50.5" y="52.5487">- </tspan><tspan font-weight="400" font-size="12" x="-43.5" y="52.5487">bias </tspan><tspan font-weight="400" font-size="12" x="-16.5" y="52.5487">: </tspan><tspan font-weight="400" font-size="12" x="-10.5" y="52.5487">int</tspan><tspan font-weight="400" font-size="12" x="2.50001" y="52.5487">32</tspan><tspan font-weight="400" font-size="12" x="-50.5" y="70.8266">+ </tspan><tspan font-weight="400" font-size="12" x="-40.5" y="70.8266">production</tspan><tspan font-weight="400" font-size="12" x="17.5" y="70.8266">(</tspan><tspan font-weight="400" font-size="12" x="21.5" y="70.8266">speed </tspan><tspan font-weight="400" font-size="12" x="59.5" y="70.8266">: </tspan><tspan font-weight="400" font-size="12" x="65.5" y="70.8266">float</tspan><tspan font-weight="400" font-size="12" x="88.5" y="70.8266">) : </tspan><tspan font-weight="400" font-size="12" x="101.5" y="70.8266">float</tspan><tspan font-weight="400" font-size="12" x="-50.5" y="86.8196">+ </tspan><tspan font-weight="400" font-size="12" x="-40.5" y="86.8196">bufferSize</tspan><tspan font-weight="400" font-size="12" x="13.5" y="86.8196">() : </tspan><tspan font-weight="400" font-size="12" x="30.5" y="86.8196">int</tspan><tspan font-weight="400" font-size="12" x="43.5" y="86.8196">32</tspan></text><path d="M402.286 612.174 720.616 612.174 720.616 719.742 402.286 719.742Z" stroke="#000000" stroke-width="0.874534" fill="#FFF1AA" transform="matrix(1 0 0 1.00096 -27.7403 106.082)"/><path d="M402.286 627.041 720.616 627.041" stroke="#000000" stroke-width="0.874534" stroke-miterlimit="10" fill="none" transform="matrix(1 0 0 1.00096 -27.7403 106.082)"/><path d="M402.286 673.391 720.616 673.391" stroke="#000000" stroke-width="0.874534" stroke-miterlimit="10" fill="none" transform="matrix(1 0 0 1.00096 -27.7403 106.082)"/><text font-family="Arial,Arial_MSFontService,sans-serif" font-weight="700" font-size="12" transform="matrix(0.874534 0 0 0.875378 520.593 729)">Wind<tspan font-weight="400" font-size="12" x="-160.5" y="20.5625">- </tspan><tspan font-weight="400" font-size="12" x="-153.5" y="20.5625">speedBase </tspan><tspan font-weight="400" font-size="12" x="-86.5" y="20.5625">: </tspan><tspan font-weight="400" font-size="12" x="-80.5" y="20.5625">float</tspan><tspan font-weight="400" font-size="12" x="-160.5" y="36.5556">- </tspan><tspan font-weight="400" font-size="12" x="-153.5" y="36.5556">gaussianMean </tspan><tspan font-weight="400" font-size="12" x="-68.5" y="36.5556">: </tspan><tspan font-weight="400" font-size="12" x="-62.5" y="36.5556">float</tspan><tspan font-weight="400" font-size="12" x="-160.5" y="52.5487">- </tspan><tspan font-weight="400" font-size="12" x="-153.5" y="52.5487">gaussianDev </tspan><tspan font-weight="400" font-size="12" x="-77.5" y="52.5487">: </tspan><tspan font-weight="400" font-size="12" x="-71.5" y="52.5487">float</tspan><tspan font-weight="400" font-size="12" x="-160.5" y="70.8266">+ </tspan><tspan font-weight="400" font-size="12" x="-150.5" y="70.8266">getMean</tspan><tspan font-weight="400" font-size="12" x="-103.5" y="70.8266">() : </tspan><tspan font-weight="400" font-size="12" x="-86.5" y="70.8266">float</tspan><tspan font-weight="400" font-size="12" x="-160.5" y="86.8196">+ </tspan><tspan font-weight="400" font-size="12" x="-150.5" y="86.8196">getDev</tspan><tspan font-weight="400" font-size="12" x="-112.5" y="86.8196">() : </tspan><tspan font-weight="400" font-size="12" x="-95.5" y="86.8196">float</tspan><tspan font-weight="400" font-size="12" x="-160.5" y="102.813">+ </tspan><tspan font-weight="400" font-size="12" x="-150.5" y="102.813">speed</tspan><tspan font-weight="400" font-size="12" x="-115.5" y="102.813">(</tspan><tspan font-weight="400" font-size="12" x="-111.5" y="102.813">hour </tspan><tspan font-weight="400" font-size="12" x="-83.5" y="102.813">: </tspan><tspan font-weight="400" font-size="12" x="-77.5" y="102.813">int</tspan><tspan font-weight="400" font-size="12" x="-64.5" y="102.813">32</tspan><tspan font-weight="400" font-size="12" x="-50.5" y="102.813">, </tspan><tspan font-weight="400" font-size="12" x="-44.5" y="102.813">day </tspan><tspan font-weight="400" font-size="12" x="-22.5" y="102.813">: </tspan><tspan font-weight="400" font-size="12" x="-16.5" y="102.813">int</tspan><tspan font-weight="400" font-size="12" x="-3.49998" y="102.813">32</tspan><tspan font-weight="400" font-size="12" x="10.5" y="102.813">, </tspan><tspan font-weight="400" font-size="12" x="16.5" y="102.813">month </tspan><tspan font-weight="400" font-size="12" x="54.5" y="102.813">: </tspan><tspan font-weight="400" font-size="12" x="60.5" y="102.813">int</tspan><tspan font-weight="400" font-size="12" x="73.5" y="102.813">32</tspan><tspan font-weight="400" font-size="12" x="87.5" y="102.813">, </tspan><tspan font-weight="400" font-size="12" x="93.5" y="102.813">year </tspan><tspan font-weight="400" font-size="12" x="119.5" y="102.813">: </tspan><tspan font-weight="400" font-size="12" x="125.5" y="102.813">int</tspan><tspan font-weight="400" font-size="12" x="138.5" y="102.813">32</tspan><tspan font-weight="400" font-size="12" x="152.5" y="102.813">) : </tspan><tspan font-weight="400" font-size="12" x="165.5" y="102.813">int</tspan><tspan font-weight="400" font-size="12" x="178.5" y="102.813">32</tspan></text><path d="M985.6 355.935 1117.65 355.935 1117.65 545.709 985.6 545.709Z" stroke="#000000" stroke-width="0.874534" fill="#FFF1AA" transform="matrix(1 0 0 1.00096 -27.7403 106.082)"/><path d="M985.6 370.803 1117.65 370.803" stroke="#000000" stroke-width="0.874534" stroke-miterlimit="10" fill="none" transform="matrix(1 0 0 1.00096 -27.7403 106.082)"/><path d="M985.6 445.138 1117.65 445.138" stroke="#000000" stroke-width="0.874534" stroke-miterlimit="10" fill="none" transform="matrix(1 0 0 1.00096 -27.7403 106.082)"/><text font-family="Arial,Arial_MSFontService,sans-serif" font-weight="700" font-size="12" transform="matrix(0.874534 0 0 0.875378 993.278 472)">Power Plant<tspan font-weight="400" font-size="12" x="-34" y="21.7049">- </tspan><tspan font-weight="400" font-size="12" x="-27" y="21.7049">production </tspan><tspan font-weight="400" font-size="12" x="34" y="21.7049">: </tspan><tspan font-weight="400" font-size="12" x="40.0001" y="21.7049">float</tspan><tspan font-weight="400" font-size="12" x="-34" y="37.698">- </tspan><tspan font-weight="400" font-size="12" x="-27" y="37.698">consumption </tspan><tspan font-weight="400" font-size="12" x="48" y="37.698">: </tspan><tspan font-weight="400" font-size="12" x="54" y="37.698">float</tspan><tspan font-weight="400" font-size="12" x="-34" y="53.6911">- </tspan><tspan font-weight="400" font-size="12" x="-27" y="53.6911">status </tspan><tspan font-weight="400" font-size="12" x="10" y="53.6911">: </tspan><tspan font-weight="400" font-size="12" x="16" y="53.6911">int</tspan><tspan font-weight="400" font-size="12" x="29" y="53.6911">32</tspan><tspan font-weight="400" font-size="12" x="-34" y="69.6842">- </tspan><tspan font-weight="400" font-size="12" x="-27" y="69.6842">mep</tspan><tspan font-weight="400" font-size="12" x="-2.00002" y="69.6842">_</tspan><tspan font-weight="400" font-size="12" x="5.00001" y="69.6842">pp </tspan><tspan font-weight="400" font-size="12" x="22" y="69.6842">: </tspan><tspan font-weight="400" font-size="12" x="28" y="69.6842">float</tspan><tspan font-weight="400" font-size="12" x="-34" y="85.6773">- </tspan><tspan font-weight="400" font-size="12" x="-27" y="85.6773">cep</tspan><tspan font-weight="400" font-size="12" x="-6.99996" y="85.6773">_</tspan><tspan font-weight="400" font-size="12" x="0" y="85.6773">pp </tspan><tspan font-weight="400" font-size="12" x="17" y="85.6773">: </tspan><tspan font-weight="400" font-size="12" x="23" y="85.6773">float</tspan><tspan font-weight="400" font-size="12" x="-34" y="103.955">+ </tspan><tspan font-weight="400" font-size="12" x="-24" y="103.955">getProduction</tspan><tspan font-weight="400" font-size="12" x="52.0001" y="103.955">() : </tspan><tspan font-weight="400" font-size="12" x="69" y="103.955">float</tspan><tspan font-weight="400" font-size="12" x="-34" y="119.948">+ </tspan><tspan font-weight="400" font-size="12" x="-24" y="119.948">getConsumption</tspan><tspan font-weight="400" font-size="12" x="68.0001" y="119.948">() : </tspan><tspan font-weight="400" font-size="12" x="85" y="119.948">float</tspan><tspan font-weight="400" font-size="12" x="-34" y="135.941">+ </tspan><tspan font-weight="400" font-size="12" x="-24" y="135.941">getStatus</tspan><tspan font-weight="400" font-size="12" x="28" y="135.941">() : </tspan><tspan font-weight="400" font-size="12" x="45" y="135.941">int</tspan><tspan font-weight="400" font-size="12" x="58" y="135.941">32</tspan><tspan font-weight="400" font-size="12" x="-34" y="151.934">+ </tspan><tspan font-weight="400" font-size="12" x="-24" y="151.934">getMep</tspan><tspan font-weight="400" font-size="12" x="16" y="151.934">() : </tspan><tspan font-weight="400" font-size="12" x="33" y="151.934">float</tspan><tspan font-weight="400" font-size="12" x="-34" y="167.927">+ </tspan><tspan font-weight="400" font-size="12" x="-24" y="167.927">getCep</tspan><tspan font-weight="400" font-size="12" x="16" y="167.927">() : </tspan><tspan font-weight="400" font-size="12" x="33" y="167.927">float</tspan><tspan font-weight="400" font-size="12" x="-34" y="183.921">+ </tspan><tspan font-weight="400" font-size="12" x="-24" y="183.921">changeStatus</tspan><tspan font-weight="400" font-size="12" x="52.0001" y="183.921">() : </tspan><tspan font-weight="400" font-size="12" x="69" y="183.921">void</tspan><tspan font-weight="400" font-size="12" x="-34" y="199.914">+ </tspan><tspan font-weight="400" font-size="12" x="-24" y="199.914">setCep</tspan><tspan font-weight="400" font-size="12" x="16" y="199.914">(</tspan><tspan font-weight="400" font-size="12" x="20" y="199.914">cep </tspan><tspan font-weight="400" font-size="12" x="43" y="199.914">: </tspan><tspan font-weight="400" font-size="12" x="49" y="199.914">float</tspan><tspan font-weight="400" font-size="12" x="72" y="199.914">) : </tspan><tspan font-weight="400" font-size="12" x="85" y="199.914">void</tspan></text><path d="M0 0 113.689 0 113.689 105.819 0 105.819Z" stroke="#000000" stroke-width="0.874534" fill="#A0C8F0" transform="matrix(1 0 0 1.00096 -27.7403 106.082)"/><path d="M0 14.8671 113.689 14.8671" stroke="#000000" stroke-width="0.874534" stroke-miterlimit="10" fill="none" transform="matrix(1 0 0 1.00096 -27.7403 106.082)"/><path d="M0 61.2174 113.689 61.2174" stroke="#000000" stroke-width="0.874534" stroke-miterlimit="10" fill="none" transform="matrix(1 0 0 1.00096 -27.7403 106.082)"/><text font-family="Arial,Arial_MSFontService,sans-serif" font-weight="700" font-size="12" transform="matrix(0.874534 0 0 0.875378 10.7392 116)">Identity<tspan font-weight="400" font-size="12" x="-37.5" y="21.7049">- </tspan><tspan font-weight="400" font-size="12" x="-30.5" y="21.7049">id </tspan><tspan font-weight="400" font-size="12" x="-17.5" y="21.7049">: </tspan><tspan font-weight="400" font-size="12" x="-11.5" y="21.7049">string</tspan><tspan font-weight="400" font-size="12" x="-37.5" y="37.698">- </tspan><tspan font-weight="400" font-size="12" x="-30.5" y="37.698">address </tspan><tspan font-weight="400" font-size="12" x="18.5" y="37.698">: </tspan><tspan font-weight="400" font-size="12" x="24.5" y="37.698">string</tspan><tspan font-weight="400" font-size="12" x="-37.5" y="53.6911">- </tspan><tspan font-weight="400" font-size="12" x="-30.5" y="53.6911">port </tspan><tspan font-weight="400" font-size="12" x="-6.5" y="53.6911">: </tspan><tspan font-weight="400" font-size="12" x="-0.499999" y="53.6911">int</tspan><tspan font-weight="400" font-size="12" x="12.5" y="53.6911">32</tspan><tspan font-weight="400" font-size="12" x="-37.5" y="70.8266">+ </tspan><tspan font-weight="400" font-size="12" x="-27.5" y="70.8266">getId</tspan><tspan font-weight="400" font-size="12" x="-0.499999" y="70.8266">() : </tspan><tspan font-weight="400" font-size="12" x="16.5" y="70.8266">string</tspan><tspan font-weight="400" font-size="12" x="-37.5" y="86.8196">+ </tspan><tspan font-weight="400" font-size="12" x="-27.5" y="86.8196">getAddress</tspan><tspan font-weight="400" font-size="12" x="35.5" y="86.8196">() : </tspan><tspan font-weight="400" font-size="12" x="52.5" y="86.8196">string</tspan><tspan font-weight="400" font-size="12" x="-37.5" y="102.813">+ </tspan><tspan font-weight="400" font-size="12" x="-27.5" y="102.813">getPort</tspan><tspan font-weight="400" font-size="12" x="11.5" y="102.813">() : </tspan><tspan font-weight="400" font-size="12" x="28.5" y="102.813">int</tspan><tspan font-weight="400" font-size="12" x="41.5" y="102.813">32</tspan></text><path d="M707.245 217.322 710.209 217.322C712.192 217.322 713.183 219.727 713.183 224.537L713.183 228.149C713.183 230.551 716.098 231.752 721.928 231.752L731.111 231.752" stroke="#000000" stroke-width="0.874534" stroke-miterlimit="10" fill="none" transform="matrix(1 0 0 1.00096 -27.7403 106.082)"/><path d="M695.876 217.322 701.56 211.637 707.245 217.322 701.56 223.006Z" stroke="#000000" stroke-width="0.874534" stroke-miterlimit="10" transform="matrix(1 0 0 1.00096 -27.7403 106.082)"/><path d="M320.517 150.166 320.517 153.481C320.517 155.696 317.602 156.804 311.771 156.804L247.493 156.804C241.663 156.804 238.748 159.719 238.748 165.549L238.748 175.781" stroke="#000000" stroke-width="0.874534" stroke-miterlimit="10" fill="none" transform="matrix(1 0 0 1.00096 -27.7403 106.082)"/><path d="M320.517 138.797 326.201 144.482 320.517 150.166 314.832 144.482Z" stroke="#000000" stroke-width="0.874534" stroke-miterlimit="10" transform="matrix(1 0 0 1.00096 -27.7403 106.082)"/><path d="M320.517 150.166 320.517 153.568C320.517 155.842 323.432 156.979 329.262 156.979L389.168 156.979C394.998 156.979 397.913 159.894 397.913 165.724L397.913 175.781" stroke="#000000" stroke-width="0.874534" stroke-miterlimit="10" fill="none" transform="matrix(1 0 0 1.00096 -27.7403 106.082)"/><path d="M320.517 138.797 326.201 144.482 320.517 150.166 314.832 144.482Z" stroke="#000000" stroke-width="0.874534" stroke-miterlimit="10" transform="matrix(1 0 0 1.00096 -27.7403 106.082)"/><path d="M615.672 161.894 615.672 164.902C615.672 166.908 615.526 167.911 615.235 167.911L615.016 167.911C614.87 167.911 614.798 170.825 614.798 176.656L614.798 185.401" stroke="#000000" stroke-width="0.874534" stroke-miterlimit="10" fill="none" transform="matrix(1 0 0 1.00096 -27.7403 106.082)"/><path d="M615.672 151.399 620.919 161.894 610.425 161.894Z" stroke="#000000" stroke-width="0.874534" stroke-miterlimit="10" fill="none" transform="matrix(1 0 0 1.00096 -27.7403 106.082)"/><path d="M707.245 217.322 710.209 217.322C712.192 217.322 713.183 219.727 713.183 224.537L713.183 228.149C713.183 230.551 716.098 231.752 721.928 231.752L731.111 231.752" stroke="#000000" stroke-width="0.874534" stroke-miterlimit="10" fill="none" transform="matrix(1 0 0 1.00096 -27.7403 106.082)"/><path d="M695.876 217.322 701.56 211.637 707.245 217.322 701.56 223.006Z" stroke="#000000" stroke-width="0.874534" stroke-miterlimit="10" transform="matrix(1 0 0 1.00096 -27.7403 106.082)"/><text fill="#787878" font-family="Arial,Arial_MSFontService,sans-serif" font-weight="400" font-size="12" transform="matrix(0.874534 0 0 0.875378 -22.4931 119)">Visual Paradigm Online Free Edition<tspan font-size="12" x="1067" y="801.939">Visual Paradigm Online Free Edition</tspan></text></g></svg>